<svg width="20" height="20" viewBox="0 0 20 20" fill="currentColor" xmlns="http://www.w3.org/2000/svg">
<g clip-path="url(#clip0_43_133)">
<path d="M18 9.5C18 9.775 17.775 10 17.5 10H15.5C15.225 10 15 9.775 15 9.5C15 9.225 15.225 9 15.5 9H16.97C16.83 7.64 16.135 6.255 15.055 5.155L14.245 5.965C14.145 6.065 14.02 6.11 13.89 6.11C13.76 6.11 13.635 6.06 13.535 5.965C13.34 5.77 13.34 5.455 13.535 5.26L14.3 4.495C13.25 3.685 11.95 3.135 10.5 3.03V4.005C10.5 4.28 10.275 4.505 10 4.505C9.725 4.505 9.5 4.28 9.5 4.005V3.03C8.05 3.135 6.75 3.685 5.7 4.495L6.465 5.26C6.66 5.455 6.66 5.77 6.465 5.965C6.365 6.065 6.24 6.11 6.11 6.11C5.98 6.11 5.855 6.06 5.755 5.965L4.945 5.155C3.86 6.255 3.165 7.64 3.03 9H4.5C4.775 9 5 9.225 5 9.5C5 9.775 4.775 10 4.5 10H2.5C2.225 10 2 9.775 2 9.5C2 5.505 5.74 2 10 2C14.26 2 18 5.505 18 9.5ZM9.345 14.79C9.345 16.405 8.34 17.21 6.77 17.21H5.255V12.4H6.715C8.34 12.4 9.345 13.165 9.345 14.79ZM8.26 14.79C8.26 13.615 7.64 13.175 6.65 13.175H6.32V16.44H6.65C7.64 16.44 8.26 15.96 8.26 14.79ZM14.875 14.79C14.875 16.35 13.905 17.3 12.495 17.3C11.085 17.3 10.115 16.345 10.115 14.79C10.115 13.235 11.085 12.315 12.495 12.315C13.905 12.315 14.875 13.23 14.875 14.79ZM13.79 14.79C13.79 13.76 13.285 13.14 12.495 13.14C11.705 13.14 11.2 13.755 11.2 14.79C11.2 15.825 11.705 16.47 12.495 16.47C13.285 16.47 13.79 15.815 13.79 14.79ZM11 9C11 8.45 10.55 8 10 8C9.87 8 9.745 8.025 9.63 8.075L7.945 6.44C7.835 6.35 7.675 6.475 7.735 6.605L9.075 8.635C9.03 8.75 9 8.875 9 9.005C9 9.555 9.45 10.005 10 10.005C10.55 10.005 11 9.555 11 9.005V9Z"/>
</g>
<defs>
<clipPath id="clip0_43_133">
<rect width="20" height="20"/>
</clipPath>
</defs>
</svg>
