<svg width="20" height="20" viewBox="0 0 20 20" fill="currentColor" xmlns="http://www.w3.org/2000/svg">
<g clip-path="url(#clip0_43_60)">
<path d="M2.175 5.375C1.965 5.195 1.945 4.88 2.12 4.67C2.81 3.865 4.675 2.7 6.775 4.075C8.655 5.31 10.065 3.735 10.12 3.665C10.3 3.46 10.615 3.435 10.825 3.615C11.035 3.795 11.055 4.11 10.88 4.32C10.42 4.855 9.44 5.55 8.22 5.55C7.605 5.55 6.93 5.37499 6.225 4.91C4.345 3.675 2.935 5.25 2.88 5.32C2.7 5.525 2.385 5.55 2.175 5.37V5.375ZM2.88 9.825C2.94 9.75499 4.35 8.18 6.225 9.415C6.93 9.875 7.605 10.055 8.22 10.055C9.44 10.055 10.42 9.35999 10.88 8.825C11.06 8.615 11.035 8.29999 10.825 8.12C10.615 7.94 10.3 7.965 10.12 8.17C10.06 8.24 8.65 9.81 6.775 8.58C4.675 7.2 2.815 8.365 2.12 9.175C1.94 9.385 1.965 9.7 2.175 9.88C2.385 10.06 2.7 10.035 2.88 9.83V9.825ZM14.5 12.59V7C14.5 6.725 14.275 6.5 14 6.5C13.725 6.5 13.5 6.725 13.5 7V12.59C12.92 12.795 12.5 13.345 12.5 14C12.5 14.83 13.17 15.5 14 15.5C14.83 15.5 15.5 14.83 15.5 14C15.5 13.35 15.08 12.8 14.5 12.59ZM18 14C18 16.205 16.205 18 14 18C11.795 18 10.025 16.23 10 14.045C9.515 14.335 8.91 14.56 8.22 14.56C7.605 14.56 6.93 14.385 6.225 13.92C4.345 12.685 2.935 14.26 2.88 14.33C2.7 14.535 2.385 14.56 2.175 14.38C1.965 14.2 1.945 13.885 2.12 13.675C2.81 12.87 4.675 11.705 6.775 13.08C8.655 14.315 10.065 12.74 10.12 12.67C10.165 12.62 10.22 12.58 10.275 12.55C10.53 11.9 10.945 11.32 11.495 10.875V4.495C11.495 3.115 12.615 1.995 13.995 1.995C15.375 1.995 16.495 3.115 16.495 4.495V10.875C17.44 11.63 17.995 12.78 17.995 13.995L18 14ZM17 14C17 13.02 16.52 12.1 15.715 11.54L15.5 11.39V4.5C15.5 3.675 14.825 3 14 3C13.175 3 12.5 3.675 12.5 4.5V11.39L12.285 11.54C11.48 12.1 11 13.02 11 14C11 15.655 12.345 17 14 17C15.655 17 17 15.655 17 14Z" />
</g>
<defs>
<clipPath id="clip0_43_60">
<rect width="20" height="20"/>
</clipPath>
</defs>
</svg>
