<svg width="20" height="20" viewBox="0 0 20 20" fill="currentColor" xmlns="http://www.w3.org/2000/svg">
<g clip-path="url(#clip0_43_108)">
<path d="M6 12C6.27614 12 6.5 11.7761 6.5 11.5C6.5 11.2239 6.27614 11 6 11C5.72386 11 5.5 11.2239 5.5 11.5C5.5 11.7761 5.72386 12 6 12Z"/>
<path d="M14 12C14.2761 12 14.5 11.7761 14.5 11.5C14.5 11.2239 14.2761 11 14 11C13.7239 11 13.5 11.2239 13.5 11.5C13.5 11.7761 13.7239 12 14 12Z"/>
<path d="M10 12C10.2761 12 10.5 11.7761 10.5 11.5C10.5 11.2239 10.2761 11 10 11C9.72386 11 9.5 11.2239 9.5 11.5C9.5 11.7761 9.72386 12 10 12Z"/>
<path d="M6 17C6.27614 17 6.5 16.7761 6.5 16.5C6.5 16.2239 6.27614 16 6 16C5.72386 16 5.5 16.2239 5.5 16.5C5.5 16.7761 5.72386 17 6 17Z"/>
<path d="M14 17C14.2761 17 14.5 16.7761 14.5 16.5C14.5 16.2239 14.2761 16 14 16C13.7239 16 13.5 16.2239 13.5 16.5C13.5 16.7761 13.7239 17 14 17Z"/>
<path d="M10 17C10.2761 17 10.5 16.7761 10.5 16.5C10.5 16.2239 10.2761 16 10 16C9.72386 16 9.5 16.2239 9.5 16.5C9.5 16.7761 9.72386 17 10 17Z"/>
<path d="M4 14.5C4.27614 14.5 4.5 14.2761 4.5 14C4.5 13.7239 4.27614 13.5 4 13.5C3.72386 13.5 3.5 13.7239 3.5 14C3.5 14.2761 3.72386 14.5 4 14.5Z"/>
<path d="M12 14.5C12.2761 14.5 12.5 14.2761 12.5 14C12.5 13.7239 12.2761 13.5 12 13.5C11.7239 13.5 11.5 13.7239 11.5 14C11.5 14.2761 11.7239 14.5 12 14.5Z"/>
<path d="M16 14.5C16.2761 14.5 16.5 14.2761 16.5 14C16.5 13.7239 16.2761 13.5 16 13.5C15.7239 13.5 15.5 13.7239 15.5 14C15.5 14.2761 15.7239 14.5 16 14.5Z"/>
<path d="M8 14.5C8.27614 14.5 8.5 14.2761 8.5 14C8.5 13.7239 8.27614 13.5 8 13.5C7.72386 13.5 7.5 13.7239 7.5 14C7.5 14.2761 7.72386 14.5 8 14.5Z"/>
<path d="M1.83999 5.47C2.09999 5.56 2.38499 5.42 2.47499 5.16C2.48999 5.11 2.88999 4 3.99999 4C4.545 4 4.79499 4.255 5.14499 4.605C5.54499 5.005 6.03999 5.5 6.99999 5.5C7.95999 5.5 8.45499 5.005 8.85499 4.605C9.20499 4.255 9.46 4 10 4C10.54 4 10.795 4.255 11.145 4.605C11.545 5.005 12.04 5.5 13 5.5C13.96 5.5 14.455 5.005 14.855 4.605C15.205 4.255 15.46 4 16 4C17.11 4 17.51 5.115 17.525 5.16C17.595 5.37 17.79 5.5 18 5.5C18.05 5.5 18.105 5.49 18.16 5.475C18.42 5.39 18.565 5.105 18.475 4.84C18.45 4.765 17.84 3 16 3C15.045 3 14.545 3.495 14.145 3.895C13.795 4.245 13.54 4.5 13 4.5C12.46 4.5 12.205 4.245 11.855 3.895C11.455 3.495 10.96 3 10 3C9.04 3 8.545 3.495 8.145 3.895C7.795 4.245 7.53999 4.5 6.99999 4.5C6.45999 4.5 6.20499 4.245 5.85499 3.895C5.45499 3.495 4.95999 3 3.99999 3C2.15999 3 1.54999 4.765 1.52499 4.84C1.43999 5.1 1.58 5.38 1.83999 5.47Z"/>
<path d="M16 7C15.045 7 14.545 7.495 14.145 7.895C13.795 8.245 13.54 8.5 13 8.5C12.46 8.5 12.205 8.245 11.855 7.895C11.455 7.495 10.96 7 10 7C9.04 7 8.545 7.495 8.145 7.895C7.795 8.245 7.53999 8.5 6.99999 8.5C6.45999 8.5 6.20499 8.245 5.85499 7.895C5.45499 7.495 4.95999 7 3.99999 7C2.15999 7 1.54999 8.765 1.52499 8.84C1.43999 9.1 1.58 9.38 1.83999 9.47C2.09999 9.56 2.38499 9.42 2.47499 9.16C2.48999 9.11 2.88999 8 3.99999 8C4.545 8 4.79499 8.255 5.14499 8.605C5.54499 9.005 6.03999 9.5 6.99999 9.5C7.95999 9.5 8.45499 9.005 8.85499 8.605C9.20499 8.255 9.46 8 10 8C10.54 8 10.795 8.255 11.145 8.605C11.545 9.005 12.04 9.5 13 9.5C13.96 9.5 14.455 9.005 14.855 8.605C15.205 8.255 15.46 8 16 8C17.11 8 17.51 9.115 17.525 9.16C17.595 9.37 17.79 9.5 18 9.5C18.05 9.5 18.105 9.49 18.16 9.475C18.42 9.39 18.565 9.105 18.475 8.84C18.45 8.765 17.84 7 16 7Z"/>
</g>
<defs>
<clipPath id="clip0_43_108">
<rect width="20" height="20"/>
</clipPath>
</defs>
</svg>
