<svg width="20" height="20" viewBox="0 0 20 20" fill="currentColor" xmlns="http://www.w3.org/2000/svg">
<g clip-path="url(#clip0_43_17)">
<path d="M18 9.5C18 9.775 17.775 10 17.5 10H15.5C15.225 10 15 9.775 15 9.5C15 9.225 15.225 9 15.5 9H16.97C16.83 7.64 16.135 6.255 15.055 5.155L14.245 5.965C14.145 6.065 14.02 6.11 13.89 6.11C13.76 6.11 13.635 6.06 13.535 5.965C13.34 5.77 13.34 5.455 13.535 5.26L14.3 4.495C13.25 3.685 11.95 3.135 10.5 3.03V4.005C10.5 4.28 10.275 4.505 10 4.505C9.725 4.505 9.5 4.28 9.5 4.005V3.03C8.05 3.135 6.75 3.685 5.7 4.495L6.465 5.26C6.66 5.455 6.66 5.77 6.465 5.965C6.365 6.065 6.24 6.11 6.11 6.11C5.98 6.11 5.855 6.06 5.755 5.965L4.945 5.155C3.86 6.255 3.165 7.64 3.03 9H4.5C4.775 9 5 9.225 5 9.5C5 9.775 4.775 10 4.5 10H2.5C2.225 10 2 9.775 2 9.5C2 5.505 5.74 2 10 2C14.26 2 18 5.505 18 9.5ZM9.35 14.835C9.35 16.08 8.525 16.8 7.64 16.8C7.29 16.8 6.95 16.655 6.64 16.405L6.675 17V18.105H5.62V13.075H6.48L6.56 13.45H6.58C6.92 13.19 7.335 12.98 7.765 12.98C8.755 12.98 9.345 13.715 9.345 14.83L9.35 14.835ZM8.265 14.85C8.265 14.155 8.02 13.77 7.465 13.77C7.19 13.77 6.945 13.895 6.675 14.145V15.74C6.925 15.94 7.185 16.01 7.4 16.01C7.89 16.01 8.265 15.635 8.265 14.84V14.85ZM13.405 13.795H11.395V11.9H10.33V16.71H11.395V14.63H13.405V16.71H14.46V11.9H13.405V13.795ZM11 9C11 8.45 10.55 8 10 8C9.87 8 9.745 8.025 9.63 8.075L7.945 6.44C7.835 6.35 7.675 6.475 7.735 6.605L9.075 8.635C9.03 8.75 9 8.875 9 9.005C9 9.555 9.45 10.005 10 10.005C10.55 10.005 11 9.555 11 9.005V9Z"/>
</g>
<defs>
<clipPath id="clip0_43_17">
<rect width="20" height="20"/>
</clipPath>
</defs>
</svg>
